# cfr straw bale: 36 x 18 x 14 in, rounded top and vertical edges
# generated by jetson/scripts/generate_straw_assets.py
o straw_bale
v -0.43607 -0.20747 0.15667
v -0.42856 -0.21057 0.15977
v -0.42125 -0.21253 0.16173
v -0.41416 -0.21361 0.16281
v -0.40720 -0.21396 0.16316
v 0.40720 -0.21396 0.16316
v 0.41416 -0.21361 0.16281
v 0.42125 -0.21253 0.16173
v 0.42856 -0.21057 0.15977
v 0.43607 -0.20747 0.15667
v -0.43917 -0.19996 0.15977
v -0.43148 -0.20288 0.16414
v -0.42348 -0.20486 0.16711
v -0.41536 -0.20601 0.16882
v -0.40720 -0.20638 0.16937
v 0.40720 -0.20638 0.16937
v 0.41536 -0.20601 0.16882
v 0.42348 -0.20486 0.16711
v 0.43148 -0.20288 0.16414
v 0.43917 -0.19996 0.15977
v -0.44113 -0.19265 0.16173
v -0.43346 -0.19488 0.16711
v -0.42507 -0.19647 0.17094
v -0.41624 -0.19742 0.17323
v -0.40720 -0.19773 0.17399
v 0.40720 -0.19773 0.17399
v 0.41624 -0.19742 0.17323
v 0.42507 -0.19647 0.17094
v 0.43346 -0.19488 0.16711
v 0.44113 -0.19265 0.16173
v -0.44221 -0.18556 0.16281
v -0.43461 -0.18676 0.16882
v -0.42602 -0.18764 0.17323
v -0.41677 -0.18817 0.17593
v -0.40720 -0.18835 0.17684
v 0.40720 -0.18835 0.17684
v 0.41677 -0.18817 0.17593
v 0.42602 -0.18764 0.17323
v 0.43461 -0.18676 0.16882
v 0.44221 -0.18556 0.16281
v -0.44256 -0.17860 0.16316
v -0.43498 -0.17860 0.16937
v -0.42633 -0.17860 0.17399
v -0.41695 -0.17860 0.17684
v -0.40720 -0.17860 0.17780
v 0.40720 -0.17860 0.17780
v 0.41695 -0.17860 0.17684
v 0.42633 -0.17860 0.17399
v 0.43498 -0.17860 0.16937
v 0.44256 -0.17860 0.16316
v -0.44256 0.17860 0.16316
v -0.43498 0.17860 0.16937
v -0.42633 0.17860 0.17399
v -0.41695 0.17860 0.17684
v -0.40720 0.17860 0.17780
v 0.40720 0.17860 0.17780
v 0.41695 0.17860 0.17684
v 0.42633 0.17860 0.17399
v 0.43498 0.17860 0.16937
v 0.44256 0.17860 0.16316
v -0.44221 0.18556 0.16281
v -0.43461 0.18676 0.16882
v -0.42602 0.18764 0.17323
v -0.41677 0.18817 0.17593
v -0.40720 0.18835 0.17684
v 0.40720 0.18835 0.17684
v 0.41677 0.18817 0.17593
v 0.42602 0.18764 0.17323
v 0.43461 0.18676 0.16882
v 0.44221 0.18556 0.16281
v -0.44113 0.19265 0.16173
v -0.43346 0.19488 0.16711
v -0.42507 0.19647 0.17094
v -0.41624 0.19742 0.17323
v -0.40720 0.19773 0.17399
v 0.40720 0.19773 0.17399
v 0.41624 0.19742 0.17323
v 0.42507 0.19647 0.17094
v 0.43346 0.19488 0.16711
v 0.44113 0.19265 0.16173
v -0.43917 0.19996 0.15977
v -0.43148 0.20288 0.16414
v -0.42348 0.20486 0.16711
v -0.41536 0.20601 0.16882
v -0.40720 0.20638 0.16937
v 0.40720 0.20638 0.16937
v 0.41536 0.20601 0.16882
v 0.42348 0.20486 0.16711
v 0.43148 0.20288 0.16414
v 0.43917 0.19996 0.15977
v -0.43607 0.20747 0.15667
v -0.42856 0.21057 0.15977
v -0.42125 0.21253 0.16173
v -0.41416 0.21361 0.16281
v -0.40720 0.21396 0.16316
v 0.40720 0.21396 0.16316
v 0.41416 0.21361 0.16281
v 0.42125 0.21253 0.16173
v 0.42856 0.21057 0.15977
v 0.43607 0.20747 0.15667
v -0.44256 -0.21396 -0.17780
v -0.43498 -0.22017 -0.17780
v -0.42633 -0.22479 -0.17780
v -0.41695 -0.22764 -0.17780
v -0.40720 -0.22860 -0.17780
v 0.40720 -0.22860 -0.17780
v 0.41695 -0.22764 -0.17780
v 0.42633 -0.22479 -0.17780
v 0.43498 -0.22017 -0.17780
v 0.44256 -0.21396 -0.17780
v -0.44256 -0.21396 0.12780
v -0.43498 -0.22017 0.12780
v -0.42633 -0.22479 0.12780
v -0.41695 -0.22764 0.12780
v -0.40720 -0.22860 0.12780
v 0.40720 -0.22860 0.12780
v 0.41695 -0.22764 0.12780
v 0.42633 -0.22479 0.12780
v 0.43498 -0.22017 0.12780
v 0.44256 -0.21396 0.12780
v -0.44221 -0.21361 0.13476
v -0.43461 -0.21962 0.13596
v -0.42602 -0.22403 0.13684
v -0.41677 -0.22673 0.13737
v -0.40720 -0.22764 0.13755
v 0.40720 -0.22764 0.13755
v 0.41677 -0.22673 0.13737
v 0.42602 -0.22403 0.13684
v 0.43461 -0.21962 0.13596
v 0.44221 -0.21361 0.13476
v -0.44113 -0.21253 0.14185
v -0.43346 -0.21791 0.14408
v -0.42507 -0.22174 0.14567
v -0.41624 -0.22403 0.14662
v -0.40720 -0.22479 0.14693
v 0.40720 -0.22479 0.14693
v 0.41624 -0.22403 0.14662
v 0.42507 -0.22174 0.14567
v 0.43346 -0.21791 0.14408
v 0.44113 -0.21253 0.14185
v -0.43917 -0.21057 0.14916
v -0.43148 -0.21494 0.15208
v -0.42348 -0.21791 0.15406
v -0.41536 -0.21962 0.15521
v -0.40720 -0.22017 0.15558
v 0.40720 -0.22017 0.15558
v 0.41536 -0.21962 0.15521
v 0.42348 -0.21791 0.15406
v 0.43148 -0.21494 0.15208
v 0.43917 -0.21057 0.14916
v -0.43607 -0.20747 0.15667
v -0.42856 -0.21057 0.15977
v -0.42125 -0.21253 0.16173
v -0.41416 -0.21361 0.16281
v -0.40720 -0.21396 0.16316
v 0.40720 -0.21396 0.16316
v 0.41416 -0.21361 0.16281
v 0.42125 -0.21253 0.16173
v 0.42856 -0.21057 0.15977
v 0.43607 -0.20747 0.15667
v -0.44256 -0.21396 -0.17780
v -0.44877 -0.20638 -0.17780
v -0.45339 -0.19773 -0.17780
v -0.45624 -0.18835 -0.17780
v -0.45720 -0.17860 -0.17780
v -0.45720 0.17860 -0.17780
v -0.45624 0.18835 -0.17780
v -0.45339 0.19773 -0.17780
v -0.44877 0.20638 -0.17780
v -0.44256 0.21396 -0.17780
v -0.44256 -0.21396 0.12780
v -0.44877 -0.20638 0.12780
v -0.45339 -0.19773 0.12780
v -0.45624 -0.18835 0.12780
v -0.45720 -0.17860 0.12780
v -0.45720 0.17860 0.12780
v -0.45624 0.18835 0.12780
v -0.45339 0.19773 0.12780
v -0.44877 0.20638 0.12780
v -0.44256 0.21396 0.12780
v -0.44221 -0.21361 0.13476
v -0.44822 -0.20601 0.13596
v -0.45263 -0.19742 0.13684
v -0.45533 -0.18817 0.13737
v -0.45624 -0.17860 0.13755
v -0.45624 0.17860 0.13755
v -0.45533 0.18817 0.13737
v -0.45263 0.19742 0.13684
v -0.44822 0.20601 0.13596
v -0.44221 0.21361 0.13476
v -0.44113 -0.21253 0.14185
v -0.44651 -0.20486 0.14408
v -0.45034 -0.19647 0.14567
v -0.45263 -0.18764 0.14662
v -0.45339 -0.17860 0.14693
v -0.45339 0.17860 0.14693
v -0.45263 0.18764 0.14662
v -0.45034 0.19647 0.14567
v -0.44651 0.20486 0.14408
v -0.44113 0.21253 0.14185
v -0.43917 -0.21057 0.14916
v -0.44354 -0.20288 0.15208
v -0.44651 -0.19488 0.15406
v -0.44822 -0.18676 0.15521
v -0.44877 -0.17860 0.15558
v -0.44877 0.17860 0.15558
v -0.44822 0.18676 0.15521
v -0.44651 0.19488 0.15406
v -0.44354 0.20288 0.15208
v -0.43917 0.21057 0.14916
v -0.43607 -0.20747 0.15667
v -0.43917 -0.19996 0.15977
v -0.44113 -0.19265 0.16173
v -0.44221 -0.18556 0.16281
v -0.44256 -0.17860 0.16316
v -0.44256 0.17860 0.16316
v -0.44221 0.18556 0.16281
v -0.44113 0.19265 0.16173
v -0.43917 0.19996 0.15977
v -0.43607 0.20747 0.15667
v -0.44256 0.21396 -0.17780
v -0.43498 0.22017 -0.17780
v -0.42633 0.22479 -0.17780
v -0.41695 0.22764 -0.17780
v -0.40720 0.22860 -0.17780
v 0.40720 0.22860 -0.17780
v 0.41695 0.22764 -0.17780
v 0.42633 0.22479 -0.17780
v 0.43498 0.22017 -0.17780
v 0.44256 0.21396 -0.17780
v -0.44256 0.21396 0.12780
v -0.43498 0.22017 0.12780
v -0.42633 0.22479 0.12780
v -0.41695 0.22764 0.12780
v -0.40720 0.22860 0.12780
v 0.40720 0.22860 0.12780
v 0.41695 0.22764 0.12780
v 0.42633 0.22479 0.12780
v 0.43498 0.22017 0.12780
v 0.44256 0.21396 0.12780
v -0.44221 0.21361 0.13476
v -0.43461 0.21962 0.13596
v -0.42602 0.22403 0.13684
v -0.41677 0.22673 0.13737
v -0.40720 0.22764 0.13755
v 0.40720 0.22764 0.13755
v 0.41677 0.22673 0.13737
v 0.42602 0.22403 0.13684
v 0.43461 0.21962 0.13596
v 0.44221 0.21361 0.13476
v -0.44113 0.21253 0.14185
v -0.43346 0.21791 0.14408
v -0.42507 0.22174 0.14567
v -0.41624 0.22403 0.14662
v -0.40720 0.22479 0.14693
v 0.40720 0.22479 0.14693
v 0.41624 0.22403 0.14662
v 0.42507 0.22174 0.14567
v 0.43346 0.21791 0.14408
v 0.44113 0.21253 0.14185
v -0.43917 0.21057 0.14916
v -0.43148 0.21494 0.15208
v -0.42348 0.21791 0.15406
v -0.41536 0.21962 0.15521
v -0.40720 0.22017 0.15558
v 0.40720 0.22017 0.15558
v 0.41536 0.21962 0.15521
v 0.42348 0.21791 0.15406
v 0.43148 0.21494 0.15208
v 0.43917 0.21057 0.14916
v -0.43607 0.20747 0.15667
v -0.42856 0.21057 0.15977
v -0.42125 0.21253 0.16173
v -0.41416 0.21361 0.16281
v -0.40720 0.21396 0.16316
v 0.40720 0.21396 0.16316
v 0.41416 0.21361 0.16281
v 0.42125 0.21253 0.16173
v 0.42856 0.21057 0.15977
v 0.43607 0.20747 0.15667
v 0.44256 -0.21396 -0.17780
v 0.44877 -0.20638 -0.17780
v 0.45339 -0.19773 -0.17780
v 0.45624 -0.18835 -0.17780
v 0.45720 -0.17860 -0.17780
v 0.45720 0.17860 -0.17780
v 0.45624 0.18835 -0.17780
v 0.45339 0.19773 -0.17780
v 0.44877 0.20638 -0.17780
v 0.44256 0.21396 -0.17780
v 0.44256 -0.21396 0.12780
v 0.44877 -0.20638 0.12780
v 0.45339 -0.19773 0.12780
v 0.45624 -0.18835 0.12780
v 0.45720 -0.17860 0.12780
v 0.45720 0.17860 0.12780
v 0.45624 0.18835 0.12780
v 0.45339 0.19773 0.12780
v 0.44877 0.20638 0.12780
v 0.44256 0.21396 0.12780
v 0.44221 -0.21361 0.13476
v 0.44822 -0.20601 0.13596
v 0.45263 -0.19742 0.13684
v 0.45533 -0.18817 0.13737
v 0.45624 -0.17860 0.13755
v 0.45624 0.17860 0.13755
v 0.45533 0.18817 0.13737
v 0.45263 0.19742 0.13684
v 0.44822 0.20601 0.13596
v 0.44221 0.21361 0.13476
v 0.44113 -0.21253 0.14185
v 0.44651 -0.20486 0.14408
v 0.45034 -0.19647 0.14567
v 0.45263 -0.18764 0.14662
v 0.45339 -0.17860 0.14693
v 0.45339 0.17860 0.14693
v 0.45263 0.18764 0.14662
v 0.45034 0.19647 0.14567
v 0.44651 0.20486 0.14408
v 0.44113 0.21253 0.14185
v 0.43917 -0.21057 0.14916
v 0.44354 -0.20288 0.15208
v 0.44651 -0.19488 0.15406
v 0.44822 -0.18676 0.15521
v 0.44877 -0.17860 0.15558
v 0.44877 0.17860 0.15558
v 0.44822 0.18676 0.15521
v 0.44651 0.19488 0.15406
v 0.44354 0.20288 0.15208
v 0.43917 0.21057 0.14916
v 0.43607 -0.20747 0.15667
v 0.43917 -0.19996 0.15977
v 0.44113 -0.19265 0.16173
v 0.44221 -0.18556 0.16281
v 0.44256 -0.17860 0.16316
v 0.44256 0.17860 0.16316
v 0.44221 0.18556 0.16281
v 0.44113 0.19265 0.16173
v 0.43917 0.19996 0.15977
v 0.43607 0.20747 0.15667
vt 0.00000 0.00000
vt 0.01814 0.00000
vt 0.03203 0.00000
vt 0.04380 0.00000
vt 0.05468 0.00000
vt 0.94532 0.00000
vt 0.95620 0.00000
vt 0.96797 0.00000
vt 0.98186 0.00000
vt 1.00000 0.00000
vt 0.00000 0.03629
vt 0.01814 0.03629
vt 0.03203 0.03629
vt 0.04380 0.03629
vt 0.05468 0.03629
vt 0.94532 0.03629
vt 0.95620 0.03629
vt 0.96797 0.03629
vt 0.98186 0.03629
vt 1.00000 0.03629
vt 0.00000 0.06406
vt 0.01814 0.06406
vt 0.03203 0.06406
vt 0.04380 0.06406
vt 0.05468 0.06406
vt 0.94532 0.06406
vt 0.95620 0.06406
vt 0.96797 0.06406
vt 0.98186 0.06406
vt 1.00000 0.06406
vt 0.00000 0.08761
vt 0.01814 0.08761
vt 0.03203 0.08761
vt 0.04380 0.08761
vt 0.05468 0.08761
vt 0.94532 0.08761
vt 0.95620 0.08761
vt 0.96797 0.08761
vt 0.98186 0.08761
vt 1.00000 0.08761
vt 0.00000 0.10936
vt 0.01814 0.10936
vt 0.03203 0.10936
vt 0.04380 0.10936
vt 0.05468 0.10936
vt 0.94532 0.10936
vt 0.95620 0.10936
vt 0.96797 0.10936
vt 0.98186 0.10936
vt 1.00000 0.10936
vt 0.00000 0.89064
vt 0.01814 0.89064
vt 0.03203 0.89064
vt 0.04380 0.89064
vt 0.05468 0.89064
vt 0.94532 0.89064
vt 0.95620 0.89064
vt 0.96797 0.89064
vt 0.98186 0.89064
vt 1.00000 0.89064
vt 0.00000 0.91239
vt 0.01814 0.91239
vt 0.03203 0.91239
vt 0.04380 0.91239
vt 0.05468 0.91239
vt 0.94532 0.91239
vt 0.95620 0.91239
vt 0.96797 0.91239
vt 0.98186 0.91239
vt 1.00000 0.91239
vt 0.00000 0.93594
vt 0.01814 0.93594
vt 0.03203 0.93594
vt 0.04380 0.93594
vt 0.05468 0.93594
vt 0.94532 0.93594
vt 0.95620 0.93594
vt 0.96797 0.93594
vt 0.98186 0.93594
vt 1.00000 0.93594
vt 0.00000 0.96371
vt 0.01814 0.96371
vt 0.03203 0.96371
vt 0.04380 0.96371
vt 0.05468 0.96371
vt 0.94532 0.96371
vt 0.95620 0.96371
vt 0.96797 0.96371
vt 0.98186 0.96371
vt 1.00000 0.96371
vt 0.00000 1.00000
vt 0.01814 1.00000
vt 0.03203 1.00000
vt 0.04380 1.00000
vt 0.05468 1.00000
vt 0.94532 1.00000
vt 0.95620 1.00000
vt 0.96797 1.00000
vt 0.98186 1.00000
vt 1.00000 1.00000
vt 0.00000 0.00000
vt 0.01814 0.00000
vt 0.03203 0.00000
vt 0.04380 0.00000
vt 0.05468 0.00000
vt 0.94532 0.00000
vt 0.95620 0.00000
vt 0.96797 0.00000
vt 0.98186 0.00000
vt 1.00000 0.00000
vt 0.00000 0.85939
vt 0.01814 0.85939
vt 0.03203 0.85939
vt 0.04380 0.85939
vt 0.05468 0.85939
vt 0.94532 0.85939
vt 0.95620 0.85939
vt 0.96797 0.85939
vt 0.98186 0.85939
vt 1.00000 0.85939
vt 0.00000 0.88736
vt 0.01814 0.88736
vt 0.03203 0.88736
vt 0.04380 0.88736
vt 0.05468 0.88736
vt 0.94532 0.88736
vt 0.95620 0.88736
vt 0.96797 0.88736
vt 0.98186 0.88736
vt 1.00000 0.88736
vt 0.00000 0.91763
vt 0.01814 0.91763
vt 0.03203 0.91763
vt 0.04380 0.91763
vt 0.05468 0.91763
vt 0.94532 0.91763
vt 0.95620 0.91763
vt 0.96797 0.91763
vt 0.98186 0.91763
vt 1.00000 0.91763
vt 0.00000 0.95334
vt 0.01814 0.95334
vt 0.03203 0.95334
vt 0.04380 0.95334
vt 0.05468 0.95334
vt 0.94532 0.95334
vt 0.95620 0.95334
vt 0.96797 0.95334
vt 0.98186 0.95334
vt 1.00000 0.95334
vt 0.00000 1.00000
vt 0.01814 1.00000
vt 0.03203 1.00000
vt 0.04380 1.00000
vt 0.05468 1.00000
vt 0.94532 1.00000
vt 0.95620 1.00000
vt 0.96797 1.00000
vt 0.98186 1.00000
vt 1.00000 1.00000
vt 0.00000 0.00000
vt 0.03629 0.00000
vt 0.06406 0.00000
vt 0.08761 0.00000
vt 0.10936 0.00000
vt 0.89064 0.00000
vt 0.91239 0.00000
vt 0.93594 0.00000
vt 0.96371 0.00000
vt 1.00000 0.00000
vt 0.00000 0.85939
vt 0.03629 0.85939
vt 0.06406 0.85939
vt 0.08761 0.85939
vt 0.10936 0.85939
vt 0.89064 0.85939
vt 0.91239 0.85939
vt 0.93594 0.85939
vt 0.96371 0.85939
vt 1.00000 0.85939
vt 0.00000 0.88736
vt 0.03629 0.88736
vt 0.06406 0.88736
vt 0.08761 0.88736
vt 0.10936 0.88736
vt 0.89064 0.88736
vt 0.91239 0.88736
vt 0.93594 0.88736
vt 0.96371 0.88736
vt 1.00000 0.88736
vt 0.00000 0.91763
vt 0.03629 0.91763
vt 0.06406 0.91763
vt 0.08761 0.91763
vt 0.10936 0.91763
vt 0.89064 0.91763
vt 0.91239 0.91763
vt 0.93594 0.91763
vt 0.96371 0.91763
vt 1.00000 0.91763
vt 0.00000 0.95334
vt 0.03629 0.95334
vt 0.06406 0.95334
vt 0.08761 0.95334
vt 0.10936 0.95334
vt 0.89064 0.95334
vt 0.91239 0.95334
vt 0.93594 0.95334
vt 0.96371 0.95334
vt 1.00000 0.95334
vt 0.00000 1.00000
vt 0.03629 1.00000
vt 0.06406 1.00000
vt 0.08761 1.00000
vt 0.10936 1.00000
vt 0.89064 1.00000
vt 0.91239 1.00000
vt 0.93594 1.00000
vt 0.96371 1.00000
vt 1.00000 1.00000
vt 0.00000 0.00000
vt 0.01814 0.00000
vt 0.03203 0.00000
vt 0.04380 0.00000
vt 0.05468 0.00000
vt 0.94532 0.00000
vt 0.95620 0.00000
vt 0.96797 0.00000
vt 0.98186 0.00000
vt 1.00000 0.00000
vt 0.00000 0.85939
vt 0.01814 0.85939
vt 0.03203 0.85939
vt 0.04380 0.85939
vt 0.05468 0.85939
vt 0.94532 0.85939
vt 0.95620 0.85939
vt 0.96797 0.85939
vt 0.98186 0.85939
vt 1.00000 0.85939
vt 0.00000 0.88736
vt 0.01814 0.88736
vt 0.03203 0.88736
vt 0.04380 0.88736
vt 0.05468 0.88736
vt 0.94532 0.88736
vt 0.95620 0.88736
vt 0.96797 0.88736
vt 0.98186 0.88736
vt 1.00000 0.88736
vt 0.00000 0.91763
vt 0.01814 0.91763
vt 0.03203 0.91763
vt 0.04380 0.91763
vt 0.05468 0.91763
vt 0.94532 0.91763
vt 0.95620 0.91763
vt 0.96797 0.91763
vt 0.98186 0.91763
vt 1.00000 0.91763
vt 0.00000 0.95334
vt 0.01814 0.95334
vt 0.03203 0.95334
vt 0.04380 0.95334
vt 0.05468 0.95334
vt 0.94532 0.95334
vt 0.95620 0.95334
vt 0.96797 0.95334
vt 0.98186 0.95334
vt 1.00000 0.95334
vt 0.00000 1.00000
vt 0.01814 1.00000
vt 0.03203 1.00000
vt 0.04380 1.00000
vt 0.05468 1.00000
vt 0.94532 1.00000
vt 0.95620 1.00000
vt 0.96797 1.00000
vt 0.98186 1.00000
vt 1.00000 1.00000
vt 0.00000 0.00000
vt 0.03629 0.00000
vt 0.06406 0.00000
vt 0.08761 0.00000
vt 0.10936 0.00000
vt 0.89064 0.00000
vt 0.91239 0.00000
vt 0.93594 0.00000
vt 0.96371 0.00000
vt 1.00000 0.00000
vt 0.00000 0.85939
vt 0.03629 0.85939
vt 0.06406 0.85939
vt 0.08761 0.85939
vt 0.10936 0.85939
vt 0.89064 0.85939
vt 0.91239 0.85939
vt 0.93594 0.85939
vt 0.96371 0.85939
vt 1.00000 0.85939
vt 0.00000 0.88736
vt 0.03629 0.88736
vt 0.06406 0.88736
vt 0.08761 0.88736
vt 0.10936 0.88736
vt 0.89064 0.88736
vt 0.91239 0.88736
vt 0.93594 0.88736
vt 0.96371 0.88736
vt 1.00000 0.88736
vt 0.00000 0.91763
vt 0.03629 0.91763
vt 0.06406 0.91763
vt 0.08761 0.91763
vt 0.10936 0.91763
vt 0.89064 0.91763
vt 0.91239 0.91763
vt 0.93594 0.91763
vt 0.96371 0.91763
vt 1.00000 0.91763
vt 0.00000 0.95334
vt 0.03629 0.95334
vt 0.06406 0.95334
vt 0.08761 0.95334
vt 0.10936 0.95334
vt 0.89064 0.95334
vt 0.91239 0.95334
vt 0.93594 0.95334
vt 0.96371 0.95334
vt 1.00000 0.95334
vt 0.00000 1.00000
vt 0.03629 1.00000
vt 0.06406 1.00000
vt 0.08761 1.00000
vt 0.10936 1.00000
vt 0.89064 1.00000
vt 0.91239 1.00000
vt 0.93594 1.00000
vt 0.96371 1.00000
vt 1.00000 1.00000
vn -0.5774 -0.5774 0.5774
vn -0.4272 -0.6393 0.6393
vn -0.2811 -0.6786 0.6786
vn -0.1393 -0.7002 0.7002
vn 0.0000 -0.7071 0.7071
vn 0.0000 -0.7071 0.7071
vn 0.1393 -0.7002 0.7002
vn 0.2811 -0.6786 0.6786
vn 0.4272 -0.6393 0.6393
vn 0.5774 -0.5774 0.5774
vn -0.6393 -0.4272 0.6393
vn -0.4857 -0.4857 0.7268
vn -0.3256 -0.5253 0.7862
vn -0.1632 -0.5481 0.8203
vn 0.0000 -0.5556 0.8315
vn 0.0000 -0.5556 0.8315
vn 0.1632 -0.5481 0.8203
vn 0.3256 -0.5253 0.7862
vn 0.4857 -0.4857 0.7268
vn 0.6393 -0.4272 0.6393
vn -0.6786 -0.2811 0.6786
vn -0.5253 -0.3256 0.7862
vn -0.3574 -0.3574 0.8629
vn -0.1807 -0.3764 0.9087
vn 0.0000 -0.3827 0.9239
vn 0.0000 -0.3827 0.9239
vn 0.1807 -0.3764 0.9087
vn 0.3574 -0.3574 0.8629
vn 0.5253 -0.3256 0.7862
vn 0.6786 -0.2811 0.6786
vn -0.7002 -0.1393 0.7002
vn -0.5481 -0.1632 0.8203
vn -0.3764 -0.1807 0.9087
vn -0.1915 -0.1915 0.9626
vn 0.0000 -0.1951 0.9808
vn 0.0000 -0.1951 0.9808
vn 0.1915 -0.1915 0.9626
vn 0.3764 -0.1807 0.9087
vn 0.5481 -0.1632 0.8203
vn 0.7002 -0.1393 0.7002
vn -0.7071 0.0000 0.7071
vn -0.5556 0.0000 0.8315
vn -0.3827 0.0000 0.9239
vn -0.1951 0.0000 0.9808
vn 0.0000 0.0000 1.0000
vn 0.0000 0.0000 1.0000
vn 0.1951 0.0000 0.9808
vn 0.3827 0.0000 0.9239
vn 0.5556 0.0000 0.8315
vn 0.7071 0.0000 0.7071
vn -0.7071 0.0000 0.7071
vn -0.5556 0.0000 0.8315
vn -0.3827 0.0000 0.9239
vn -0.1951 0.0000 0.9808
vn 0.0000 0.0000 1.0000
vn 0.0000 0.0000 1.0000
vn 0.1951 0.0000 0.9808
vn 0.3827 0.0000 0.9239
vn 0.5556 0.0000 0.8315
vn 0.7071 0.0000 0.7071
vn -0.7002 0.1393 0.7002
vn -0.5481 0.1632 0.8203
vn -0.3764 0.1807 0.9087
vn -0.1915 0.1915 0.9626
vn 0.0000 0.1951 0.9808
vn 0.0000 0.1951 0.9808
vn 0.1915 0.1915 0.9626
vn 0.3764 0.1807 0.9087
vn 0.5481 0.1632 0.8203
vn 0.7002 0.1393 0.7002
vn -0.6786 0.2811 0.6786
vn -0.5253 0.3256 0.7862
vn -0.3574 0.3574 0.8629
vn -0.1807 0.3764 0.9087
vn 0.0000 0.3827 0.9239
vn 0.0000 0.3827 0.9239
vn 0.1807 0.3764 0.9087
vn 0.3574 0.3574 0.8629
vn 0.5253 0.3256 0.7862
vn 0.6786 0.2811 0.6786
vn -0.6393 0.4272 0.6393
vn -0.4857 0.4857 0.7268
vn -0.3256 0.5253 0.7862
vn -0.1632 0.5481 0.8203
vn 0.0000 0.5556 0.8315
vn 0.0000 0.5556 0.8315
vn 0.1632 0.5481 0.8203
vn 0.3256 0.5253 0.7862
vn 0.4857 0.4857 0.7268
vn 0.6393 0.4272 0.6393
vn -0.5774 0.5774 0.5774
vn -0.4272 0.6393 0.6393
vn -0.2811 0.6786 0.6786
vn -0.1393 0.7002 0.7002
vn 0.0000 0.7071 0.7071
vn 0.0000 0.7071 0.7071
vn 0.1393 0.7002 0.7002
vn 0.2811 0.6786 0.6786
vn 0.4272 0.6393 0.6393
vn 0.5774 0.5774 0.5774
vn -0.7071 -0.7071 0.0000
vn -0.5556 -0.8315 0.0000
vn -0.3827 -0.9239 0.0000
vn -0.1951 -0.9808 0.0000
vn 0.0000 -1.0000 0.0000
vn 0.0000 -1.0000 0.0000
vn 0.1951 -0.9808 0.0000
vn 0.3827 -0.9239 0.0000
vn 0.5556 -0.8315 0.0000
vn 0.7071 -0.7071 0.0000
vn -0.7071 -0.7071 0.0000
vn -0.5556 -0.8315 0.0000
vn -0.3827 -0.9239 0.0000
vn -0.1951 -0.9808 0.0000
vn 0.0000 -1.0000 0.0000
vn 0.0000 -1.0000 0.0000
vn 0.1951 -0.9808 0.0000
vn 0.3827 -0.9239 0.0000
vn 0.5556 -0.8315 0.0000
vn 0.7071 -0.7071 0.0000
vn -0.7002 -0.7002 0.1393
vn -0.5481 -0.8203 0.1632
vn -0.3764 -0.9087 0.1807
vn -0.1915 -0.9626 0.1915
vn 0.0000 -0.9808 0.1951
vn 0.0000 -0.9808 0.1951
vn 0.1915 -0.9626 0.1915
vn 0.3764 -0.9087 0.1807
vn 0.5481 -0.8203 0.1632
vn 0.7002 -0.7002 0.1393
vn -0.6786 -0.6786 0.2811
vn -0.5253 -0.7862 0.3256
vn -0.3574 -0.8629 0.3574
vn -0.1807 -0.9087 0.3764
vn 0.0000 -0.9239 0.3827
vn 0.0000 -0.9239 0.3827
vn 0.1807 -0.9087 0.3764
vn 0.3574 -0.8629 0.3574
vn 0.5253 -0.7862 0.3256
vn 0.6786 -0.6786 0.2811
vn -0.6393 -0.6393 0.4272
vn -0.4857 -0.7268 0.4857
vn -0.3256 -0.7862 0.5253
vn -0.1632 -0.8203 0.5481
vn 0.0000 -0.8315 0.5556
vn 0.0000 -0.8315 0.5556
vn 0.1632 -0.8203 0.5481
vn 0.3256 -0.7862 0.5253
vn 0.4857 -0.7268 0.4857
vn 0.6393 -0.6393 0.4272
vn -0.5774 -0.5774 0.5774
vn -0.4272 -0.6393 0.6393
vn -0.2811 -0.6786 0.6786
vn -0.1393 -0.7002 0.7002
vn 0.0000 -0.7071 0.7071
vn 0.0000 -0.7071 0.7071
vn 0.1393 -0.7002 0.7002
vn 0.2811 -0.6786 0.6786
vn 0.4272 -0.6393 0.6393
vn 0.5774 -0.5774 0.5774
vn -0.7071 -0.7071 0.0000
vn -0.8315 -0.5556 0.0000
vn -0.9239 -0.3827 0.0000
vn -0.9808 -0.1951 0.0000
vn -1.0000 0.0000 0.0000
vn -1.0000 0.0000 0.0000
vn -0.9808 0.1951 0.0000
vn -0.9239 0.3827 0.0000
vn -0.8315 0.5556 0.0000
vn -0.7071 0.7071 0.0000
vn -0.7071 -0.7071 0.0000
vn -0.8315 -0.5556 0.0000
vn -0.9239 -0.3827 0.0000
vn -0.9808 -0.1951 0.0000
vn -1.0000 0.0000 0.0000
vn -1.0000 0.0000 0.0000
vn -0.9808 0.1951 0.0000
vn -0.9239 0.3827 0.0000
vn -0.8315 0.5556 0.0000
vn -0.7071 0.7071 0.0000
vn -0.7002 -0.7002 0.1393
vn -0.8203 -0.5481 0.1632
vn -0.9087 -0.3764 0.1807
vn -0.9626 -0.1915 0.1915
vn -0.9808 0.0000 0.1951
vn -0.9808 0.0000 0.1951
vn -0.9626 0.1915 0.1915
vn -0.9087 0.3764 0.1807
vn -0.8203 0.5481 0.1632
vn -0.7002 0.7002 0.1393
vn -0.6786 -0.6786 0.2811
vn -0.7862 -0.5253 0.3256
vn -0.8629 -0.3574 0.3574
vn -0.9087 -0.1807 0.3764
vn -0.9239 0.0000 0.3827
vn -0.9239 0.0000 0.3827
vn -0.9087 0.1807 0.3764
vn -0.8629 0.3574 0.3574
vn -0.7862 0.5253 0.3256
vn -0.6786 0.6786 0.2811
vn -0.6393 -0.6393 0.4272
vn -0.7268 -0.4857 0.4857
vn -0.7862 -0.3256 0.5253
vn -0.8203 -0.1632 0.5481
vn -0.8315 0.0000 0.5556
vn -0.8315 0.0000 0.5556
vn -0.8203 0.1632 0.5481
vn -0.7862 0.3256 0.5253
vn -0.7268 0.4857 0.4857
vn -0.6393 0.6393 0.4272
vn -0.5774 -0.5774 0.5774
vn -0.6393 -0.4272 0.6393
vn -0.6786 -0.2811 0.6786
vn -0.7002 -0.1393 0.7002
vn -0.7071 0.0000 0.7071
vn -0.7071 0.0000 0.7071
vn -0.7002 0.1393 0.7002
vn -0.6786 0.2811 0.6786
vn -0.6393 0.4272 0.6393
vn -0.5774 0.5774 0.5774
vn -0.7071 0.7071 0.0000
vn -0.5556 0.8315 0.0000
vn -0.3827 0.9239 0.0000
vn -0.1951 0.9808 0.0000
vn 0.0000 1.0000 0.0000
vn 0.0000 1.0000 0.0000
vn 0.1951 0.9808 0.0000
vn 0.3827 0.9239 0.0000
vn 0.5556 0.8315 0.0000
vn 0.7071 0.7071 0.0000
vn -0.7071 0.7071 0.0000
vn -0.5556 0.8315 0.0000
vn -0.3827 0.9239 0.0000
vn -0.1951 0.9808 0.0000
vn 0.0000 1.0000 0.0000
vn 0.0000 1.0000 0.0000
vn 0.1951 0.9808 0.0000
vn 0.3827 0.9239 0.0000
vn 0.5556 0.8315 0.0000
vn 0.7071 0.7071 0.0000
vn -0.7002 0.7002 0.1393
vn -0.5481 0.8203 0.1632
vn -0.3764 0.9087 0.1807
vn -0.1915 0.9626 0.1915
vn 0.0000 0.9808 0.1951
vn 0.0000 0.9808 0.1951
vn 0.1915 0.9626 0.1915
vn 0.3764 0.9087 0.1807
vn 0.5481 0.8203 0.1632
vn 0.7002 0.7002 0.1393
vn -0.6786 0.6786 0.2811
vn -0.5253 0.7862 0.3256
vn -0.3574 0.8629 0.3574
vn -0.1807 0.9087 0.3764
vn 0.0000 0.9239 0.3827
vn 0.0000 0.9239 0.3827
vn 0.1807 0.9087 0.3764
vn 0.3574 0.8629 0.3574
vn 0.5253 0.7862 0.3256
vn 0.6786 0.6786 0.2811
vn -0.6393 0.6393 0.4272
vn -0.4857 0.7268 0.4857
vn -0.3256 0.7862 0.5253
vn -0.1632 0.8203 0.5481
vn 0.0000 0.8315 0.5556
vn 0.0000 0.8315 0.5556
vn 0.1632 0.8203 0.5481
vn 0.3256 0.7862 0.5253
vn 0.4857 0.7268 0.4857
vn 0.6393 0.6393 0.4272
vn -0.5774 0.5774 0.5774
vn -0.4272 0.6393 0.6393
vn -0.2811 0.6786 0.6786
vn -0.1393 0.7002 0.7002
vn 0.0000 0.7071 0.7071
vn 0.0000 0.7071 0.7071
vn 0.1393 0.7002 0.7002
vn 0.2811 0.6786 0.6786
vn 0.4272 0.6393 0.6393
vn 0.5774 0.5774 0.5774
vn 0.7071 -0.7071 0.0000
vn 0.8315 -0.5556 0.0000
vn 0.9239 -0.3827 0.0000
vn 0.9808 -0.1951 0.0000
vn 1.0000 0.0000 0.0000
vn 1.0000 0.0000 0.0000
vn 0.9808 0.1951 0.0000
vn 0.9239 0.3827 0.0000
vn 0.8315 0.5556 0.0000
vn 0.7071 0.7071 0.0000
vn 0.7071 -0.7071 0.0000
vn 0.8315 -0.5556 0.0000
vn 0.9239 -0.3827 0.0000
vn 0.9808 -0.1951 0.0000
vn 1.0000 0.0000 0.0000
vn 1.0000 0.0000 0.0000
vn 0.9808 0.1951 0.0000
vn 0.9239 0.3827 0.0000
vn 0.8315 0.5556 0.0000
vn 0.7071 0.7071 0.0000
vn 0.7002 -0.7002 0.1393
vn 0.8203 -0.5481 0.1632
vn 0.9087 -0.3764 0.1807
vn 0.9626 -0.1915 0.1915
vn 0.9808 0.0000 0.1951
vn 0.9808 0.0000 0.1951
vn 0.9626 0.1915 0.1915
vn 0.9087 0.3764 0.1807
vn 0.8203 0.5481 0.1632
vn 0.7002 0.7002 0.1393
vn 0.6786 -0.6786 0.2811
vn 0.7862 -0.5253 0.3256
vn 0.8629 -0.3574 0.3574
vn 0.9087 -0.1807 0.3764
vn 0.9239 0.0000 0.3827
vn 0.9239 0.0000 0.3827
vn 0.9087 0.1807 0.3764
vn 0.8629 0.3574 0.3574
vn 0.7862 0.5253 0.3256
vn 0.6786 0.6786 0.2811
vn 0.6393 -0.6393 0.4272
vn 0.7268 -0.4857 0.4857
vn 0.7862 -0.3256 0.5253
vn 0.8203 -0.1632 0.5481
vn 0.8315 0.0000 0.5556
vn 0.8315 0.0000 0.5556
vn 0.8203 0.1632 0.5481
vn 0.7862 0.3256 0.5253
vn 0.7268 0.4857 0.4857
vn 0.6393 0.6393 0.4272
vn 0.5774 -0.5774 0.5774
vn 0.6393 -0.4272 0.6393
vn 0.6786 -0.2811 0.6786
vn 0.7002 -0.1393 0.7002
vn 0.7071 0.0000 0.7071
vn 0.7071 0.0000 0.7071
vn 0.7002 0.1393 0.7002
vn 0.6786 0.2811 0.6786
vn 0.6393 0.4272 0.6393
vn 0.5774 0.5774 0.5774
f 1/1/1 2/2/2 12/12/12
f 1/1/1 12/12/12 11/11/11
f 2/2/2 3/3/3 13/13/13
f 2/2/2 13/13/13 12/12/12
f 3/3/3 4/4/4 14/14/14
f 3/3/3 14/14/14 13/13/13
f 4/4/4 5/5/5 15/15/15
f 4/4/4 15/15/15 14/14/14
f 5/5/5 6/6/6 16/16/16
f 5/5/5 16/16/16 15/15/15
f 6/6/6 7/7/7 17/17/17
f 6/6/6 17/17/17 16/16/16
f 7/7/7 8/8/8 18/18/18
f 7/7/7 18/18/18 17/17/17
f 8/8/8 9/9/9 19/19/19
f 8/8/8 19/19/19 18/18/18
f 9/9/9 10/10/10 20/20/20
f 9/9/9 20/20/20 19/19/19
f 11/11/11 12/12/12 22/22/22
f 11/11/11 22/22/22 21/21/21
f 12/12/12 13/13/13 23/23/23
f 12/12/12 23/23/23 22/22/22
f 13/13/13 14/14/14 24/24/24
f 13/13/13 24/24/24 23/23/23
f 14/14/14 15/15/15 25/25/25
f 14/14/14 25/25/25 24/24/24
f 15/15/15 16/16/16 26/26/26
f 15/15/15 26/26/26 25/25/25
f 16/16/16 17/17/17 27/27/27
f 16/16/16 27/27/27 26/26/26
f 17/17/17 18/18/18 28/28/28
f 17/17/17 28/28/28 27/27/27
f 18/18/18 19/19/19 29/29/29
f 18/18/18 29/29/29 28/28/28
f 19/19/19 20/20/20 30/30/30
f 19/19/19 30/30/30 29/29/29
f 21/21/21 22/22/22 32/32/32
f 21/21/21 32/32/32 31/31/31
f 22/22/22 23/23/23 33/33/33
f 22/22/22 33/33/33 32/32/32
f 23/23/23 24/24/24 34/34/34
f 23/23/23 34/34/34 33/33/33
f 24/24/24 25/25/25 35/35/35
f 24/24/24 35/35/35 34/34/34
f 25/25/25 26/26/26 36/36/36
f 25/25/25 36/36/36 35/35/35
f 26/26/26 27/27/27 37/37/37
f 26/26/26 37/37/37 36/36/36
f 27/27/27 28/28/28 38/38/38
f 27/27/27 38/38/38 37/37/37
f 28/28/28 29/29/29 39/39/39
f 28/28/28 39/39/39 38/38/38
f 29/29/29 30/30/30 40/40/40
f 29/29/29 40/40/40 39/39/39
f 31/31/31 32/32/32 42/42/42
f 31/31/31 42/42/42 41/41/41
f 32/32/32 33/33/33 43/43/43
f 32/32/32 43/43/43 42/42/42
f 33/33/33 34/34/34 44/44/44
f 33/33/33 44/44/44 43/43/43
f 34/34/34 35/35/35 45/45/45
f 34/34/34 45/45/45 44/44/44
f 35/35/35 36/36/36 46/46/46
f 35/35/35 46/46/46 45/45/45
f 36/36/36 37/37/37 47/47/47
f 36/36/36 47/47/47 46/46/46
f 37/37/37 38/38/38 48/48/48
f 37/37/37 48/48/48 47/47/47
f 38/38/38 39/39/39 49/49/49
f 38/38/38 49/49/49 48/48/48
f 39/39/39 40/40/40 50/50/50
f 39/39/39 50/50/50 49/49/49
f 41/41/41 42/42/42 52/52/52
f 41/41/41 52/52/52 51/51/51
f 42/42/42 43/43/43 53/53/53
f 42/42/42 53/53/53 52/52/52
f 43/43/43 44/44/44 54/54/54
f 43/43/43 54/54/54 53/53/53
f 44/44/44 45/45/45 55/55/55
f 44/44/44 55/55/55 54/54/54
f 45/45/45 46/46/46 56/56/56
f 45/45/45 56/56/56 55/55/55
f 46/46/46 47/47/47 57/57/57
f 46/46/46 57/57/57 56/56/56
f 47/47/47 48/48/48 58/58/58
f 47/47/47 58/58/58 57/57/57
f 48/48/48 49/49/49 59/59/59
f 48/48/48 59/59/59 58/58/58
f 49/49/49 50/50/50 60/60/60
f 49/49/49 60/60/60 59/59/59
f 51/51/51 52/52/52 62/62/62
f 51/51/51 62/62/62 61/61/61
f 52/52/52 53/53/53 63/63/63
f 52/52/52 63/63/63 62/62/62
f 53/53/53 54/54/54 64/64/64
f 53/53/53 64/64/64 63/63/63
f 54/54/54 55/55/55 65/65/65
f 54/54/54 65/65/65 64/64/64
f 55/55/55 56/56/56 66/66/66
f 55/55/55 66/66/66 65/65/65
f 56/56/56 57/57/57 67/67/67
f 56/56/56 67/67/67 66/66/66
f 57/57/57 58/58/58 68/68/68
f 57/57/57 68/68/68 67/67/67
f 58/58/58 59/59/59 69/69/69
f 58/58/58 69/69/69 68/68/68
f 59/59/59 60/60/60 70/70/70
f 59/59/59 70/70/70 69/69/69
f 61/61/61 62/62/62 72/72/72
f 61/61/61 72/72/72 71/71/71
f 62/62/62 63/63/63 73/73/73
f 62/62/62 73/73/73 72/72/72
f 63/63/63 64/64/64 74/74/74
f 63/63/63 74/74/74 73/73/73
f 64/64/64 65/65/65 75/75/75
f 64/64/64 75/75/75 74/74/74
f 65/65/65 66/66/66 76/76/76
f 65/65/65 76/76/76 75/75/75
f 66/66/66 67/67/67 77/77/77
f 66/66/66 77/77/77 76/76/76
f 67/67/67 68/68/68 78/78/78
f 67/67/67 78/78/78 77/77/77
f 68/68/68 69/69/69 79/79/79
f 68/68/68 79/79/79 78/78/78
f 69/69/69 70/70/70 80/80/80
f 69/69/69 80/80/80 79/79/79
f 71/71/71 72/72/72 82/82/82
f 71/71/71 82/82/82 81/81/81
f 72/72/72 73/73/73 83/83/83
f 72/72/72 83/83/83 82/82/82
f 73/73/73 74/74/74 84/84/84
f 73/73/73 84/84/84 83/83/83
f 74/74/74 75/75/75 85/85/85
f 74/74/74 85/85/85 84/84/84
f 75/75/75 76/76/76 86/86/86
f 75/75/75 86/86/86 85/85/85
f 76/76/76 77/77/77 87/87/87
f 76/76/76 87/87/87 86/86/86
f 77/77/77 78/78/78 88/88/88
f 77/77/77 88/88/88 87/87/87
f 78/78/78 79/79/79 89/89/89
f 78/78/78 89/89/89 88/88/88
f 79/79/79 80/80/80 90/90/90
f 79/79/79 90/90/90 89/89/89
f 81/81/81 82/82/82 92/92/92
f 81/81/81 92/92/92 91/91/91
f 82/82/82 83/83/83 93/93/93
f 82/82/82 93/93/93 92/92/92
f 83/83/83 84/84/84 94/94/94
f 83/83/83 94/94/94 93/93/93
f 84/84/84 85/85/85 95/95/95
f 84/84/84 95/95/95 94/94/94
f 85/85/85 86/86/86 96/96/96
f 85/85/85 96/96/96 95/95/95
f 86/86/86 87/87/87 97/97/97
f 86/86/86 97/97/97 96/96/96
f 87/87/87 88/88/88 98/98/98
f 87/87/87 98/98/98 97/97/97
f 88/88/88 89/89/89 99/99/99
f 88/88/88 99/99/99 98/98/98
f 89/89/89 90/90/90 100/100/100
f 89/89/89 100/100/100 99/99/99
f 101/101/101 102/102/102 112/112/112
f 101/101/101 112/112/112 111/111/111
f 102/102/102 103/103/103 113/113/113
f 102/102/102 113/113/113 112/112/112
f 103/103/103 104/104/104 114/114/114
f 103/103/103 114/114/114 113/113/113
f 104/104/104 105/105/105 115/115/115
f 104/104/104 115/115/115 114/114/114
f 105/105/105 106/106/106 116/116/116
f 105/105/105 116/116/116 115/115/115
f 106/106/106 107/107/107 117/117/117
f 106/106/106 117/117/117 116/116/116
f 107/107/107 108/108/108 118/118/118
f 107/107/107 118/118/118 117/117/117
f 108/108/108 109/109/109 119/119/119
f 108/108/108 119/119/119 118/118/118
f 109/109/109 110/110/110 120/120/120
f 109/109/109 120/120/120 119/119/119
f 111/111/111 112/112/112 122/122/122
f 111/111/111 122/122/122 121/121/121
f 112/112/112 113/113/113 123/123/123
f 112/112/112 123/123/123 122/122/122
f 113/113/113 114/114/114 124/124/124
f 113/113/113 124/124/124 123/123/123
f 114/114/114 115/115/115 125/125/125
f 114/114/114 125/125/125 124/124/124
f 115/115/115 116/116/116 126/126/126
f 115/115/115 126/126/126 125/125/125
f 116/116/116 117/117/117 127/127/127
f 116/116/116 127/127/127 126/126/126
f 117/117/117 118/118/118 128/128/128
f 117/117/117 128/128/128 127/127/127
f 118/118/118 119/119/119 129/129/129
f 118/118/118 129/129/129 128/128/128
f 119/119/119 120/120/120 130/130/130
f 119/119/119 130/130/130 129/129/129
f 121/121/121 122/122/122 132/132/132
f 121/121/121 132/132/132 131/131/131
f 122/122/122 123/123/123 133/133/133
f 122/122/122 133/133/133 132/132/132
f 123/123/123 124/124/124 134/134/134
f 123/123/123 134/134/134 133/133/133
f 124/124/124 125/125/125 135/135/135
f 124/124/124 135/135/135 134/134/134
f 125/125/125 126/126/126 136/136/136
f 125/125/125 136/136/136 135/135/135
f 126/126/126 127/127/127 137/137/137
f 126/126/126 137/137/137 136/136/136
f 127/127/127 128/128/128 138/138/138
f 127/127/127 138/138/138 137/137/137
f 128/128/128 129/129/129 139/139/139
f 128/128/128 139/139/139 138/138/138
f 129/129/129 130/130/130 140/140/140
f 129/129/129 140/140/140 139/139/139
f 131/131/131 132/132/132 142/142/142
f 131/131/131 142/142/142 141/141/141
f 132/132/132 133/133/133 143/143/143
f 132/132/132 143/143/143 142/142/142
f 133/133/133 134/134/134 144/144/144
f 133/133/133 144/144/144 143/143/143
f 134/134/134 135/135/135 145/145/145
f 134/134/134 145/145/145 144/144/144
f 135/135/135 136/136/136 146/146/146
f 135/135/135 146/146/146 145/145/145
f 136/136/136 137/137/137 147/147/147
f 136/136/136 147/147/147 146/146/146
f 137/137/137 138/138/138 148/148/148
f 137/137/137 148/148/148 147/147/147
f 138/138/138 139/139/139 149/149/149
f 138/138/138 149/149/149 148/148/148
f 139/139/139 140/140/140 150/150/150
f 139/139/139 150/150/150 149/149/149
f 141/141/141 142/142/142 152/152/152
f 141/141/141 152/152/152 151/151/151
f 142/142/142 143/143/143 153/153/153
f 142/142/142 153/153/153 152/152/152
f 143/143/143 144/144/144 154/154/154
f 143/143/143 154/154/154 153/153/153
f 144/144/144 145/145/145 155/155/155
f 144/144/144 155/155/155 154/154/154
f 145/145/145 146/146/146 156/156/156
f 145/145/145 156/156/156 155/155/155
f 146/146/146 147/147/147 157/157/157
f 146/146/146 157/157/157 156/156/156
f 147/147/147 148/148/148 158/158/158
f 147/147/147 158/158/158 157/157/157
f 148/148/148 149/149/149 159/159/159
f 148/148/148 159/159/159 158/158/158
f 149/149/149 150/150/150 160/160/160
f 149/149/149 160/160/160 159/159/159
f 161/161/161 172/172/172 162/162/162
f 161/161/161 171/171/171 172/172/172
f 162/162/162 173/173/173 163/163/163
f 162/162/162 172/172/172 173/173/173
f 163/163/163 174/174/174 164/164/164
f 163/163/163 173/173/173 174/174/174
f 164/164/164 175/175/175 165/165/165
f 164/164/164 174/174/174 175/175/175
f 165/165/165 176/176/176 166/166/166
f 165/165/165 175/175/175 176/176/176
f 166/166/166 177/177/177 167/167/167
f 166/166/166 176/176/176 177/177/177
f 167/167/167 178/178/178 168/168/168
f 167/167/167 177/177/177 178/178/178
f 168/168/168 179/179/179 169/169/169
f 168/168/168 178/178/178 179/179/179
f 169/169/169 180/180/180 170/170/170
f 169/169/169 179/179/179 180/180/180
f 171/171/171 182/182/182 172/172/172
f 171/171/171 181/181/181 182/182/182
f 172/172/172 183/183/183 173/173/173
f 172/172/172 182/182/182 183/183/183
f 173/173/173 184/184/184 174/174/174
f 173/173/173 183/183/183 184/184/184
f 174/174/174 185/185/185 175/175/175
f 174/174/174 184/184/184 185/185/185
f 175/175/175 186/186/186 176/176/176
f 175/175/175 185/185/185 186/186/186
f 176/176/176 187/187/187 177/177/177
f 176/176/176 186/186/186 187/187/187
f 177/177/177 188/188/188 178/178/178
f 177/177/177 187/187/187 188/188/188
f 178/178/178 189/189/189 179/179/179
f 178/178/178 188/188/188 189/189/189
f 179/179/179 190/190/190 180/180/180
f 179/179/179 189/189/189 190/190/190
f 181/181/181 192/192/192 182/182/182
f 181/181/181 191/191/191 192/192/192
f 182/182/182 193/193/193 183/183/183
f 182/182/182 192/192/192 193/193/193
f 183/183/183 194/194/194 184/184/184
f 183/183/183 193/193/193 194/194/194
f 184/184/184 195/195/195 185/185/185
f 184/184/184 194/194/194 195/195/195
f 185/185/185 196/196/196 186/186/186
f 185/185/185 195/195/195 196/196/196
f 186/186/186 197/197/197 187/187/187
f 186/186/186 196/196/196 197/197/197
f 187/187/187 198/198/198 188/188/188
f 187/187/187 197/197/197 198/198/198
f 188/188/188 199/199/199 189/189/189
f 188/188/188 198/198/198 199/199/199
f 189/189/189 200/200/200 190/190/190
f 189/189/189 199/199/199 200/200/200
f 191/191/191 202/202/202 192/192/192
f 191/191/191 201/201/201 202/202/202
f 192/192/192 203/203/203 193/193/193
f 192/192/192 202/202/202 203/203/203
f 193/193/193 204/204/204 194/194/194
f 193/193/193 203/203/203 204/204/204
f 194/194/194 205/205/205 195/195/195
f 194/194/194 204/204/204 205/205/205
f 195/195/195 206/206/206 196/196/196
f 195/195/195 205/205/205 206/206/206
f 196/196/196 207/207/207 197/197/197
f 196/196/196 206/206/206 207/207/207
f 197/197/197 208/208/208 198/198/198
f 197/197/197 207/207/207 208/208/208
f 198/198/198 209/209/209 199/199/199
f 198/198/198 208/208/208 209/209/209
f 199/199/199 210/210/210 200/200/200
f 199/199/199 209/209/209 210/210/210
f 201/201/201 212/212/212 202/202/202
f 201/201/201 211/211/211 212/212/212
f 202/202/202 213/213/213 203/203/203
f 202/202/202 212/212/212 213/213/213
f 203/203/203 214/214/214 204/204/204
f 203/203/203 213/213/213 214/214/214
f 204/204/204 215/215/215 205/205/205
f 204/204/204 214/214/214 215/215/215
f 205/205/205 216/216/216 206/206/206
f 205/205/205 215/215/215 216/216/216
f 206/206/206 217/217/217 207/207/207
f 206/206/206 216/216/216 217/217/217
f 207/207/207 218/218/218 208/208/208
f 207/207/207 217/217/217 218/218/218
f 208/208/208 219/219/219 209/209/209
f 208/208/208 218/218/218 219/219/219
f 209/209/209 220/220/220 210/210/210
f 209/209/209 219/219/219 220/220/220
f 221/221/221 232/232/232 222/222/222
f 221/221/221 231/231/231 232/232/232
f 222/222/222 233/233/233 223/223/223
f 222/222/222 232/232/232 233/233/233
f 223/223/223 234/234/234 224/224/224
f 223/223/223 233/233/233 234/234/234
f 224/224/224 235/235/235 225/225/225
f 224/224/224 234/234/234 235/235/235
f 225/225/225 236/236/236 226/226/226
f 225/225/225 235/235/235 236/236/236
f 226/226/226 237/237/237 227/227/227
f 226/226/226 236/236/236 237/237/237
f 227/227/227 238/238/238 228/228/228
f 227/227/227 237/237/237 238/238/238
f 228/228/228 239/239/239 229/229/229
f 228/228/228 238/238/238 239/239/239
f 229/229/229 240/240/240 230/230/230
f 229/229/229 239/239/239 240/240/240
f 231/231/231 242/242/242 232/232/232
f 231/231/231 241/241/241 242/242/242
f 232/232/232 243/243/243 233/233/233
f 232/232/232 242/242/242 243/243/243
f 233/233/233 244/244/244 234/234/234
f 233/233/233 243/243/243 244/244/244
f 234/234/234 245/245/245 235/235/235
f 234/234/234 244/244/244 245/245/245
f 235/235/235 246/246/246 236/236/236
f 235/235/235 245/245/245 246/246/246
f 236/236/236 247/247/247 237/237/237
f 236/236/236 246/246/246 247/247/247
f 237/237/237 248/248/248 238/238/238
f 237/237/237 247/247/247 248/248/248
f 238/238/238 249/249/249 239/239/239
f 238/238/238 248/248/248 249/249/249
f 239/239/239 250/250/250 240/240/240
f 239/239/239 249/249/249 250/250/250
f 241/241/241 252/252/252 242/242/242
f 241/241/241 251/251/251 252/252/252
f 242/242/242 253/253/253 243/243/243
f 242/242/242 252/252/252 253/253/253
f 243/243/243 254/254/254 244/244/244
f 243/243/243 253/253/253 254/254/254
f 244/244/244 255/255/255 245/245/245
f 244/244/244 254/254/254 255/255/255
f 245/245/245 256/256/256 246/246/246
f 245/245/245 255/255/255 256/256/256
f 246/246/246 257/257/257 247/247/247
f 246/246/246 256/256/256 257/257/257
f 247/247/247 258/258/258 248/248/248
f 247/247/247 257/257/257 258/258/258
f 248/248/248 259/259/259 249/249/249
f 248/248/248 258/258/258 259/259/259
f 249/249/249 260/260/260 250/250/250
f 249/249/249 259/259/259 260/260/260
f 251/251/251 262/262/262 252/252/252
f 251/251/251 261/261/261 262/262/262
f 252/252/252 263/263/263 253/253/253
f 252/252/252 262/262/262 263/263/263
f 253/253/253 264/264/264 254/254/254
f 253/253/253 263/263/263 264/264/264
f 254/254/254 265/265/265 255/255/255
f 254/254/254 264/264/264 265/265/265
f 255/255/255 266/266/266 256/256/256
f 255/255/255 265/265/265 266/266/266
f 256/256/256 267/267/267 257/257/257
f 256/256/256 266/266/266 267/267/267
f 257/257/257 268/268/268 258/258/258
f 257/257/257 267/267/267 268/268/268
f 258/258/258 269/269/269 259/259/259
f 258/258/258 268/268/268 269/269/269
f 259/259/259 270/270/270 260/260/260
f 259/259/259 269/269/269 270/270/270
f 261/261/261 272/272/272 262/262/262
f 261/261/261 271/271/271 272/272/272
f 262/262/262 273/273/273 263/263/263
f 262/262/262 272/272/272 273/273/273
f 263/263/263 274/274/274 264/264/264
f 263/263/263 273/273/273 274/274/274
f 264/264/264 275/275/275 265/265/265
f 264/264/264 274/274/274 275/275/275
f 265/265/265 276/276/276 266/266/266
f 265/265/265 275/275/275 276/276/276
f 266/266/266 277/277/277 267/267/267
f 266/266/266 276/276/276 277/277/277
f 267/267/267 278/278/278 268/268/268
f 267/267/267 277/277/277 278/278/278
f 268/268/268 279/279/279 269/269/269
f 268/268/268 278/278/278 279/279/279
f 269/269/269 280/280/280 270/270/270
f 269/269/269 279/279/279 280/280/280
f 281/281/281 282/282/282 292/292/292
f 281/281/281 292/292/292 291/291/291
f 282/282/282 283/283/283 293/293/293
f 282/282/282 293/293/293 292/292/292
f 283/283/283 284/284/284 294/294/294
f 283/283/283 294/294/294 293/293/293
f 284/284/284 285/285/285 295/295/295
f 284/284/284 295/295/295 294/294/294
f 285/285/285 286/286/286 296/296/296
f 285/285/285 296/296/296 295/295/295
f 286/286/286 287/287/287 297/297/297
f 286/286/286 297/297/297 296/296/296
f 287/287/287 288/288/288 298/298/298
f 287/287/287 298/298/298 297/297/297
f 288/288/288 289/289/289 299/299/299
f 288/288/288 299/299/299 298/298/298
f 289/289/289 290/290/290 300/300/300
f 289/289/289 300/300/300 299/299/299
f 291/291/291 292/292/292 302/302/302
f 291/291/291 302/302/302 301/301/301
f 292/292/292 293/293/293 303/303/303
f 292/292/292 303/303/303 302/302/302
f 293/293/293 294/294/294 304/304/304
f 293/293/293 304/304/304 303/303/303
f 294/294/294 295/295/295 305/305/305
f 294/294/294 305/305/305 304/304/304
f 295/295/295 296/296/296 306/306/306
f 295/295/295 306/306/306 305/305/305
f 296/296/296 297/297/297 307/307/307
f 296/296/296 307/307/307 306/306/306
f 297/297/297 298/298/298 308/308/308
f 297/297/297 308/308/308 307/307/307
f 298/298/298 299/299/299 309/309/309
f 298/298/298 309/309/309 308/308/308
f 299/299/299 300/300/300 310/310/310
f 299/299/299 310/310/310 309/309/309
f 301/301/301 302/302/302 312/312/312
f 301/301/301 312/312/312 311/311/311
f 302/302/302 303/303/303 313/313/313
f 302/302/302 313/313/313 312/312/312
f 303/303/303 304/304/304 314/314/314
f 303/303/303 314/314/314 313/313/313
f 304/304/304 305/305/305 315/315/315
f 304/304/304 315/315/315 314/314/314
f 305/305/305 306/306/306 316/316/316
f 305/305/305 316/316/316 315/315/315
f 306/306/306 307/307/307 317/317/317
f 306/306/306 317/317/317 316/316/316
f 307/307/307 308/308/308 318/318/318
f 307/307/307 318/318/318 317/317/317
f 308/308/308 309/309/309 319/319/319
f 308/308/308 319/319/319 318/318/318
f 309/309/309 310/310/310 320/320/320
f 309/309/309 320/320/320 319/319/319
f 311/311/311 312/312/312 322/322/322
f 311/311/311 322/322/322 321/321/321
f 312/312/312 313/313/313 323/323/323
f 312/312/312 323/323/323 322/322/322
f 313/313/313 314/314/314 324/324/324
f 313/313/313 324/324/324 323/323/323
f 314/314/314 315/315/315 325/325/325
f 314/314/314 325/325/325 324/324/324
f 315/315/315 316/316/316 326/326/326
f 315/315/315 326/326/326 325/325/325
f 316/316/316 317/317/317 327/327/327
f 316/316/316 327/327/327 326/326/326
f 317/317/317 318/318/318 328/328/328
f 317/317/317 328/328/328 327/327/327
f 318/318/318 319/319/319 329/329/329
f 318/318/318 329/329/329 328/328/328
f 319/319/319 320/320/320 330/330/330
f 319/319/319 330/330/330 329/329/329
f 321/321/321 322/322/322 332/332/332
f 321/321/321 332/332/332 331/331/331
f 322/322/322 323/323/323 333/333/333
f 322/322/322 333/333/333 332/332/332
f 323/323/323 324/324/324 334/334/334
f 323/323/323 334/334/334 333/333/333
f 324/324/324 325/325/325 335/335/335
f 324/324/324 335/335/335 334/334/334
f 325/325/325 326/326/326 336/336/336
f 325/325/325 336/336/336 335/335/335
f 326/326/326 327/327/327 337/337/337
f 326/326/326 337/337/337 336/336/336
f 327/327/327 328/328/328 338/338/338
f 327/327/327 338/338/338 337/337/337
f 328/328/328 329/329/329 339/339/339
f 328/328/328 339/339/339 338/338/338
f 329/329/329 330/330/330 340/340/340
f 329/329/329 340/340/340 339/339/339
